<svg width="33" height="32" viewBox="0 0 33 32" fill="none" xmlns="http://www.w3.org/2000/svg">
<path d="M30.0917 17.1427C30.0917 25.3142 23.4673 31.9385 15.2958 31.9385C7.1243 31.9385 0.5 25.3142 0.5 17.1427C0.5 8.97116 7.1243 2.34686 15.2958 2.34686" stroke="black" stroke-width="2" stroke-linecap="round" stroke-linejoin="round"/>
<path d="M0.5 17.1427H17.5721" stroke="black" stroke-width="2" stroke-linecap="round" stroke-linejoin="round"/>
<path d="M15.2959 2.34686C11.8777 6.55035 9.88474 11.732 9.60522 17.1427C9.88474 22.5533 11.8777 27.735 15.2959 31.9385C17.9871 28.6292 19.7948 24.7135 20.5784 20.557" stroke="black" stroke-width="2" stroke-linecap="round" stroke-linejoin="round"/>
<path d="M17.4969 8.5295C16.6316 8.37896 16.6316 7.13665 17.4969 6.98611C20.6321 6.44068 23.1256 4.05274 23.8061 0.944128L23.8583 0.705844C24.0454 -0.149434 25.2634 -0.154755 25.4579 0.698853L25.5213 0.976543C26.2271 4.07047 28.7211 6.43827 31.8477 6.98219C32.7175 7.1335 32.7175 8.38211 31.8477 8.53345C28.7211 9.07734 26.2271 11.4451 25.5213 14.5391L25.4579 14.8168C25.2634 15.6704 24.0454 15.665 23.8583 14.8098L23.8061 14.5715C23.1256 11.4629 20.6321 9.07493 17.4969 8.5295Z" stroke="black" stroke-width="2" stroke-linecap="round" stroke-linejoin="round"/>
</svg>
