<svg width="31" height="30" viewBox="0 0 31 30" fill="none" xmlns="http://www.w3.org/2000/svg">
<path d="M17.7857 0.142853H2.92854C1.66617 0.142853 0.642822 1.1662 0.642822 2.42857V27.5714C0.642822 28.8338 1.66617 29.8571 2.92854 29.8571H23.5C24.7624 29.8571 25.7857 28.8338 25.7857 27.5714V17.2857" stroke="black" stroke-width="2" stroke-linecap="round" stroke-linejoin="round"/>
<path d="M0.642822 23H25.7857" stroke="black" stroke-width="2" stroke-linecap="round" stroke-linejoin="round"/>
<path d="M7.5 5.85714H12.0714" stroke="black" stroke-width="2" stroke-linecap="round" stroke-linejoin="round"/>
<path d="M7.5 11.5714H9.78571" stroke="black" stroke-width="2" stroke-linecap="round" stroke-linejoin="round"/>
<path d="M20.0579 16.1561L13.2008 17.3904L14.3437 10.4418L24.0121 0.818963C24.2247 0.604727 24.4775 0.434684 24.7561 0.31864C25.0345 0.202597 25.3333 0.142853 25.635 0.142853C25.9369 0.142853 26.2357 0.202597 26.5141 0.31864C26.7927 0.434684 27.0455 0.604727 27.2579 0.818963L29.6807 3.24182C29.8951 3.4543 30.0652 3.7071 30.1811 3.98564C30.2972 4.26418 30.3568 4.56294 30.3568 4.86468C30.3568 5.16642 30.2972 5.46518 30.1811 5.7437C30.0652 6.02224 29.8951 6.27506 29.6807 6.48754L20.0579 16.1561Z" stroke="black" stroke-width="2" stroke-linecap="round" stroke-linejoin="round"/>
</svg>
