<svg width="33" height="32" viewBox="0 0 33 32" fill="none" xmlns="http://www.w3.org/2000/svg">
<path d="M30.0385 0H2.96154C1.60207 0 0.5 1.10207 0.5 2.46154V29.5385C0.5 30.898 1.60207 32 2.96154 32H30.0385C31.398 32 32.5 30.898 32.5 29.5385V2.46154C32.5 1.10207 31.398 0 30.0385 0Z" stroke="black" stroke-width="2" stroke-linecap="round" stroke-linejoin="round"/>
<path d="M12.1429 21.4894V10.8555C12.1439 10.6776 12.1918 10.5031 12.2819 10.3497C12.372 10.1963 12.5011 10.0694 12.656 9.98193C12.811 9.89447 12.9863 9.84952 13.1642 9.85164C13.3421 9.85376 13.5163 9.90287 13.6691 9.99399L22.7768 15.2863C22.9301 15.3749 23.0575 15.5023 23.146 15.6557C23.2345 15.8091 23.2811 15.9831 23.2811 16.1601C23.2811 16.3373 23.2345 16.5112 23.146 16.6646C23.0575 16.818 22.9301 16.9454 22.7768 17.034L13.6691 22.3509C13.5163 22.4421 13.3421 22.4912 13.1642 22.4933C12.9863 22.4954 12.811 22.4505 12.656 22.363C12.5011 22.2755 12.372 22.1486 12.2819 21.9952C12.1918 21.8418 12.1439 21.6673 12.1429 21.4894Z" stroke="black" stroke-width="2" stroke-linecap="round" stroke-linejoin="round"/>
</svg>
